<svg width="47" height="46" viewBox="0 0 47 46" fill="none" xmlns="http://www.w3.org/2000/svg">
<rect x="0.662109" y="0.979492" width="46.2174" height="44.2957" rx="8" fill="#FFE3CE"/>
<path d="M23.6567 13.3715C23.0216 13.3715 22.5067 13.8864 22.5067 14.5215V31.7341C22.5067 32.3692 23.0216 32.8841 23.6567 32.8841H23.8829C24.518 32.8841 25.0329 32.3692 25.0329 31.7341V14.5215C25.0329 13.8864 24.518 13.3715 23.8829 13.3715H23.6567Z" fill="#FF842A" stroke="#FF842A" stroke-width="0.3" stroke-linecap="round"/>
<path d="M14.7476 21.9105C14.1124 21.9105 13.5976 22.4254 13.5976 23.0605V23.1953C13.5976 23.8304 14.1124 24.3453 14.7476 24.3453H32.7923C33.4275 24.3453 33.9423 23.8304 33.9423 23.1953V23.0605C33.9423 22.4254 33.4275 21.9105 32.7923 21.9105H14.7476Z" fill="#FF842A" stroke="#FF842A" stroke-width="0.3" stroke-linecap="round"/>
</svg>
