<svg width="330" height="80" viewBox="0 0 330 80" fill="none" xmlns="http://www.w3.org/2000/svg">
<path d="M147.915 13.5156V32H144.119V13.5156H147.915ZM153.603 13.5156V16.499H138.521V13.5156H153.603ZM158.312 21.2598V32H154.656V18.2637H158.097L158.312 21.2598ZM162.451 18.1748L162.388 21.5645C162.21 21.5391 161.994 21.5179 161.74 21.501C161.495 21.4756 161.271 21.4629 161.067 21.4629C160.551 21.4629 160.103 21.5306 159.722 21.666C159.349 21.793 159.036 21.9834 158.782 22.2373C158.537 22.4912 158.351 22.8001 158.224 23.1641C158.105 23.528 158.037 23.9427 158.021 24.4082L157.284 24.1797C157.284 23.291 157.373 22.4743 157.551 21.7295C157.729 20.9762 157.987 20.3203 158.325 19.7617C158.672 19.2031 159.095 18.7715 159.595 18.4668C160.094 18.1621 160.665 18.0098 161.309 18.0098C161.512 18.0098 161.719 18.0267 161.931 18.0605C162.142 18.0859 162.316 18.124 162.451 18.1748ZM172.303 28.7119V18.2637H175.959V32H172.519L172.303 28.7119ZM172.709 25.8936L173.788 25.8682C173.788 26.7822 173.682 27.6328 173.471 28.4199C173.259 29.1986 172.942 29.8757 172.519 30.4512C172.095 31.0182 171.562 31.4626 170.919 31.7842C170.276 32.0973 169.518 32.2539 168.646 32.2539C167.978 32.2539 167.36 32.1608 166.793 31.9746C166.234 31.7799 165.752 31.4795 165.346 31.0732C164.948 30.6585 164.635 30.1296 164.406 29.4863C164.186 28.8346 164.076 28.0518 164.076 27.1377V18.2637H167.732V27.1631C167.732 27.5693 167.779 27.9121 167.872 28.1914C167.974 28.4707 168.113 28.6992 168.291 28.877C168.469 29.0547 168.676 29.1816 168.913 29.2578C169.159 29.334 169.429 29.3721 169.726 29.3721C170.479 29.3721 171.071 29.2197 171.503 28.915C171.943 28.6104 172.252 28.1956 172.43 27.6709C172.616 27.1377 172.709 26.5452 172.709 25.8936ZM186.179 28.2041C186.179 27.9417 186.103 27.7048 185.95 27.4932C185.798 27.2816 185.514 27.0869 185.1 26.9092C184.693 26.723 184.105 26.5537 183.335 26.4014C182.641 26.249 181.993 26.0586 181.393 25.8301C180.8 25.5931 180.284 25.3096 179.844 24.9795C179.412 24.6494 179.074 24.2601 178.828 23.8115C178.583 23.3545 178.46 22.834 178.46 22.25C178.46 21.6745 178.583 21.1328 178.828 20.625C179.082 20.1172 179.442 19.6686 179.907 19.2793C180.381 18.8815 180.957 18.5726 181.634 18.3525C182.319 18.124 183.09 18.0098 183.944 18.0098C185.138 18.0098 186.162 18.2002 187.017 18.5811C187.88 18.9619 188.54 19.4867 188.997 20.1553C189.463 20.8154 189.695 21.5687 189.695 22.415H186.039C186.039 22.0596 185.963 21.7422 185.811 21.4629C185.667 21.1751 185.438 20.9508 185.125 20.79C184.82 20.6208 184.423 20.5361 183.932 20.5361C183.525 20.5361 183.174 20.6081 182.878 20.752C182.582 20.8874 182.353 21.0736 182.192 21.3105C182.04 21.5391 181.964 21.793 181.964 22.0723C181.964 22.2839 182.006 22.4743 182.091 22.6436C182.184 22.8044 182.332 22.9525 182.535 23.0879C182.738 23.2233 183.001 23.3503 183.322 23.4688C183.652 23.5788 184.059 23.6803 184.541 23.7734C185.531 23.9766 186.416 24.2432 187.194 24.5732C187.973 24.8949 188.591 25.335 189.048 25.8936C189.505 26.4437 189.733 27.1673 189.733 28.0645C189.733 28.6738 189.598 29.2324 189.327 29.7402C189.056 30.248 188.667 30.6924 188.159 31.0732C187.651 31.4456 187.042 31.7376 186.331 31.9492C185.629 32.1523 184.837 32.2539 183.957 32.2539C182.679 32.2539 181.596 32.0254 180.707 31.5684C179.827 31.1113 179.158 30.5316 178.701 29.8291C178.253 29.1182 178.028 28.3903 178.028 27.6455H181.494C181.511 28.1449 181.638 28.5469 181.875 28.8516C182.12 29.1562 182.429 29.3763 182.802 29.5117C183.183 29.6471 183.593 29.7148 184.033 29.7148C184.507 29.7148 184.901 29.6514 185.214 29.5244C185.527 29.389 185.764 29.2113 185.925 28.9912C186.094 28.7627 186.179 28.5003 186.179 28.2041ZM198.836 18.2637V20.8535H190.838V18.2637H198.836ZM192.818 14.874H196.475V27.8613C196.475 28.2591 196.525 28.5638 196.627 28.7754C196.737 28.987 196.898 29.1351 197.109 29.2197C197.321 29.2959 197.588 29.334 197.909 29.334C198.138 29.334 198.341 29.3255 198.519 29.3086C198.705 29.2832 198.861 29.2578 198.988 29.2324L199.001 31.9238C198.688 32.0254 198.349 32.1058 197.985 32.165C197.621 32.2243 197.219 32.2539 196.779 32.2539C195.975 32.2539 195.273 32.1227 194.672 31.8604C194.079 31.5895 193.622 31.1579 193.301 30.5654C192.979 29.973 192.818 29.1943 192.818 28.2295V14.874ZM204.574 20.9043V37.2812H200.918V18.2637H204.308L204.574 20.9043ZM213.271 24.9795V25.2461C213.271 26.2448 213.152 27.1715 212.915 28.0264C212.687 28.8812 212.348 29.626 211.899 30.2607C211.451 30.887 210.892 31.3779 210.224 31.7334C209.563 32.0804 208.802 32.2539 207.938 32.2539C207.101 32.2539 206.373 32.0846 205.755 31.7461C205.137 31.4076 204.617 30.9336 204.193 30.3242C203.779 29.7064 203.444 28.9912 203.19 28.1787C202.937 27.3662 202.742 26.4945 202.606 25.5635V24.8652C202.742 23.8665 202.937 22.9525 203.19 22.123C203.444 21.2852 203.779 20.5615 204.193 19.9521C204.617 19.3343 205.133 18.8561 205.742 18.5176C206.36 18.179 207.084 18.0098 207.913 18.0098C208.785 18.0098 209.551 18.1748 210.211 18.5049C210.88 18.835 211.438 19.3089 211.887 19.9268C212.344 20.5446 212.687 21.2809 212.915 22.1357C213.152 22.9906 213.271 23.9385 213.271 24.9795ZM209.602 25.2461V24.9795C209.602 24.3955 209.551 23.8581 209.449 23.3672C209.356 22.8678 209.204 22.432 208.992 22.0596C208.789 21.6872 208.518 21.3994 208.18 21.1963C207.85 20.9847 207.448 20.8789 206.974 20.8789C206.474 20.8789 206.047 20.9593 205.691 21.1201C205.344 21.2809 205.061 21.5137 204.841 21.8184C204.621 22.123 204.456 22.487 204.346 22.9102C204.236 23.3333 204.168 23.8115 204.143 24.3447V26.1094C204.185 26.7357 204.303 27.2985 204.498 27.7979C204.693 28.2887 204.993 28.6781 205.399 28.9658C205.806 29.2536 206.339 29.3975 206.999 29.3975C207.481 29.3975 207.888 29.2917 208.218 29.0801C208.548 28.86 208.814 28.5596 209.018 28.1787C209.229 27.7979 209.377 27.3577 209.462 26.8584C209.555 26.359 209.602 25.8216 209.602 25.2461ZM219.402 18.2637V32H215.733V18.2637H219.402ZM215.505 14.6836C215.505 14.1504 215.691 13.7103 216.063 13.3633C216.436 13.0163 216.935 12.8428 217.562 12.8428C218.179 12.8428 218.674 13.0163 219.047 13.3633C219.428 13.7103 219.618 14.1504 219.618 14.6836C219.618 15.2168 219.428 15.6569 219.047 16.0039C218.674 16.3509 218.179 16.5244 217.562 16.5244C216.935 16.5244 216.436 16.3509 216.063 16.0039C215.691 15.6569 215.505 15.2168 215.505 14.6836ZM226.283 12.5V32H222.614V12.5H226.283ZM228.721 25.2715V25.0049C228.721 23.9977 228.865 23.071 229.152 22.2246C229.44 21.3698 229.859 20.6292 230.409 20.0029C230.959 19.3766 231.636 18.89 232.44 18.543C233.244 18.1875 234.167 18.0098 235.208 18.0098C236.249 18.0098 237.176 18.1875 237.988 18.543C238.801 18.89 239.482 19.3766 240.032 20.0029C240.591 20.6292 241.014 21.3698 241.302 22.2246C241.59 23.071 241.733 23.9977 241.733 25.0049V25.2715C241.733 26.2702 241.59 27.1969 241.302 28.0518C241.014 28.8981 240.591 29.6387 240.032 30.2734C239.482 30.8997 238.805 31.3864 238.001 31.7334C237.197 32.0804 236.274 32.2539 235.233 32.2539C234.192 32.2539 233.266 32.0804 232.453 31.7334C231.649 31.3864 230.968 30.8997 230.409 30.2734C229.859 29.6387 229.44 28.8981 229.152 28.0518C228.865 27.1969 228.721 26.2702 228.721 25.2715ZM232.377 25.0049V25.2715C232.377 25.847 232.428 26.3844 232.529 26.8838C232.631 27.3831 232.792 27.8232 233.012 28.2041C233.24 28.5765 233.536 28.8685 233.9 29.0801C234.264 29.2917 234.709 29.3975 235.233 29.3975C235.741 29.3975 236.177 29.2917 236.541 29.0801C236.905 28.8685 237.197 28.5765 237.417 28.2041C237.637 27.8232 237.798 27.3831 237.899 26.8838C238.009 26.3844 238.064 25.847 238.064 25.2715V25.0049C238.064 24.4463 238.009 23.9215 237.899 23.4307C237.798 22.9313 237.633 22.4912 237.404 22.1104C237.184 21.721 236.892 21.4163 236.528 21.1963C236.164 20.9762 235.724 20.8662 235.208 20.8662C234.692 20.8662 234.252 20.9762 233.888 21.1963C233.532 21.4163 233.24 21.721 233.012 22.1104C232.792 22.4912 232.631 22.9313 232.529 23.4307C232.428 23.9215 232.377 24.4463 232.377 25.0049ZM250.709 18.2637V20.8535H242.711V18.2637H250.709ZM244.691 14.874H248.348V27.8613C248.348 28.2591 248.398 28.5638 248.5 28.7754C248.61 28.987 248.771 29.1351 248.982 29.2197C249.194 29.2959 249.461 29.334 249.782 29.334C250.011 29.334 250.214 29.3255 250.392 29.3086C250.578 29.2832 250.734 29.2578 250.861 29.2324L250.874 31.9238C250.561 32.0254 250.222 32.1058 249.858 32.165C249.494 32.2243 249.092 32.2539 248.652 32.2539C247.848 32.2539 247.146 32.1227 246.545 31.8604C245.952 31.5895 245.495 31.1579 245.174 30.5654C244.852 29.973 244.691 29.1943 244.691 28.2295V14.874Z" fill="black"/>
<path d="M109.538 30.5031L118.897 28.1761L122.808 40L109.538 30.5031ZM131.077 15.2201H114.603L109.538 0L104.474 15.2201H88L101.333 24.6541L96.2692 39.8742L109.603 30.4402L117.808 24.6541L131.077 15.2201Z" fill="#219653"/>
<rect width="30" height="30" transform="translate(106 50)" fill="#219653"/>
<rect width="30" height="30" transform="translate(70 50)" fill="#219653"/>
<rect width="30" height="30" transform="translate(142 50)" fill="#219653"/>
<path d="M157 72.3522L163.083 70.7233L165.625 79L157 72.3522ZM171 61.6541H160.292L157 51L153.708 61.6541H143L151.667 68.2579L148.375 78.9119L157.042 72.3082L162.375 68.2579L171 61.6541Z" fill="white"/>
<rect width="30" height="30" transform="translate(36 50)" fill="#219653"/>
<path d="M121 71.3522L127.083 69.7233L129.625 78L121 71.3522ZM135 60.6541H124.292L121 50L117.708 60.6541H107L115.667 67.2579L112.375 77.9119L121.042 71.3082L126.375 67.2579L135 60.6541Z" fill="white"/>
<path d="M85 71.3522L91.0833 69.7233L93.625 78L85 71.3522ZM99 60.6541H88.2917L85 50L81.7083 60.6541H71L79.6667 67.2579L76.375 77.9119L85.0417 71.3082L90.375 67.2579L99 60.6541Z" fill="white"/>
<path d="M51 71.3522L57.0833 69.7233L59.625 78L51 71.3522ZM65 60.6541H54.2917L51 50L47.7083 60.6541H37L45.6667 67.2579L42.375 77.9119L51.0417 71.3082L56.375 67.2579L65 60.6541Z" fill="white"/>
<rect width="30" height="30" transform="translate(0 50)" fill="#219653"/>
<path d="M15 72.3522L21.0833 70.7233L23.625 79L15 72.3522ZM29 61.6541H18.2917L15 51L11.7083 61.6541H1L9.66667 68.2579L6.375 78.9119L15.0417 72.3082L20.375 68.2579L29 61.6541Z" fill="white"/>
<path d="M186.848 63.6895V72H184.035V61.4336H186.672L186.848 63.6895ZM186.438 66.3457H185.676C185.676 65.5645 185.777 64.8613 185.979 64.2363C186.18 63.6048 186.464 63.0677 186.828 62.625C187.193 62.1758 187.626 61.834 188.127 61.5996C188.635 61.3587 189.201 61.2383 189.826 61.2383C190.321 61.2383 190.773 61.3099 191.184 61.4531C191.594 61.5964 191.945 61.8242 192.238 62.1367C192.538 62.4492 192.766 62.8626 192.922 63.377C193.085 63.8913 193.166 64.5195 193.166 65.2617V72H190.334V65.252C190.334 64.7832 190.269 64.4186 190.139 64.1582C190.008 63.8978 189.816 63.7155 189.562 63.6113C189.315 63.5007 189.009 63.4453 188.645 63.4453C188.267 63.4453 187.938 63.5202 187.658 63.6699C187.385 63.8197 187.157 64.028 186.975 64.2949C186.799 64.5553 186.665 64.8613 186.574 65.2129C186.483 65.5645 186.438 65.9421 186.438 66.3457ZM194.855 66.8242V66.6191C194.855 65.8444 194.966 65.1315 195.188 64.4805C195.409 63.8229 195.731 63.2533 196.154 62.7715C196.577 62.2897 197.098 61.9154 197.717 61.6484C198.335 61.375 199.045 61.2383 199.846 61.2383C200.646 61.2383 201.359 61.375 201.984 61.6484C202.609 61.9154 203.133 62.2897 203.557 62.7715C203.986 63.2533 204.312 63.8229 204.533 64.4805C204.755 65.1315 204.865 65.8444 204.865 66.6191V66.8242C204.865 67.5924 204.755 68.3053 204.533 68.9629C204.312 69.6139 203.986 70.1836 203.557 70.6719C203.133 71.1536 202.613 71.528 201.994 71.7949C201.376 72.0618 200.666 72.1953 199.865 72.1953C199.064 72.1953 198.352 72.0618 197.727 71.7949C197.108 71.528 196.584 71.1536 196.154 70.6719C195.731 70.1836 195.409 69.6139 195.188 68.9629C194.966 68.3053 194.855 67.5924 194.855 66.8242ZM197.668 66.6191V66.8242C197.668 67.2669 197.707 67.6803 197.785 68.0645C197.863 68.4486 197.987 68.7871 198.156 69.0801C198.332 69.3665 198.56 69.5911 198.84 69.7539C199.12 69.9167 199.462 69.998 199.865 69.998C200.256 69.998 200.591 69.9167 200.871 69.7539C201.151 69.5911 201.376 69.3665 201.545 69.0801C201.714 68.7871 201.838 68.4486 201.916 68.0645C202.001 67.6803 202.043 67.2669 202.043 66.8242V66.6191C202.043 66.1895 202.001 65.7858 201.916 65.4082C201.838 65.0241 201.711 64.6855 201.535 64.3926C201.366 64.0931 201.141 63.8587 200.861 63.6895C200.581 63.5202 200.243 63.4355 199.846 63.4355C199.449 63.4355 199.11 63.5202 198.83 63.6895C198.557 63.8587 198.332 64.0931 198.156 64.3926C197.987 64.6855 197.863 65.0241 197.785 65.4082C197.707 65.7858 197.668 66.1895 197.668 66.6191ZM211.77 61.4336V63.4258H205.617V61.4336H211.77ZM207.141 58.8262H209.953V68.8164C209.953 69.1224 209.992 69.3568 210.07 69.5195C210.155 69.6823 210.279 69.7962 210.441 69.8613C210.604 69.9199 210.809 69.9492 211.057 69.9492C211.232 69.9492 211.389 69.9427 211.525 69.9297C211.669 69.9102 211.789 69.8906 211.887 69.8711L211.896 71.9414C211.656 72.0195 211.395 72.0814 211.115 72.127C210.835 72.1725 210.526 72.1953 210.188 72.1953C209.569 72.1953 209.029 72.0944 208.566 71.8926C208.111 71.6842 207.759 71.3522 207.512 70.8965C207.264 70.4408 207.141 69.8418 207.141 69.0996V58.8262ZM218.234 72.1953C217.414 72.1953 216.678 72.0651 216.027 71.8047C215.376 71.5378 214.823 71.1699 214.367 70.7012C213.918 70.2324 213.573 69.6888 213.332 69.0703C213.091 68.4453 212.971 67.7812 212.971 67.0781V66.6875C212.971 65.8867 213.085 65.1543 213.312 64.4902C213.54 63.8262 213.866 63.25 214.289 62.7617C214.719 62.2734 215.24 61.8991 215.852 61.6387C216.464 61.3717 217.154 61.2383 217.922 61.2383C218.671 61.2383 219.335 61.362 219.914 61.6094C220.493 61.8568 220.979 62.2083 221.369 62.6641C221.766 63.1198 222.066 63.6667 222.268 64.3047C222.469 64.9362 222.57 65.6393 222.57 66.4141V67.5859H214.172V65.7109H219.807V65.4961C219.807 65.1055 219.735 64.7572 219.592 64.4512C219.455 64.1387 219.247 63.8913 218.967 63.709C218.687 63.5267 218.329 63.4355 217.893 63.4355C217.521 63.4355 217.202 63.5169 216.936 63.6797C216.669 63.8424 216.451 64.0703 216.281 64.3633C216.118 64.6562 215.995 65.0013 215.91 65.3984C215.832 65.7891 215.793 66.2188 215.793 66.6875V67.0781C215.793 67.5013 215.852 67.8919 215.969 68.25C216.092 68.6081 216.265 68.9173 216.486 69.1777C216.714 69.4382 216.988 69.64 217.307 69.7832C217.632 69.9264 218 69.998 218.41 69.998C218.918 69.998 219.39 69.9004 219.826 69.7051C220.269 69.5033 220.65 69.2005 220.969 68.7969L222.336 70.2812C222.115 70.6003 221.812 70.9062 221.428 71.1992C221.05 71.4922 220.594 71.7331 220.061 71.9219C219.527 72.1042 218.918 72.1953 218.234 72.1953ZM216.252 59.998L218.166 56.9902H221.223L218.537 59.998H216.252Z" fill="black"/>
<path d="M231.8 61.7266V60.2715C231.8 59.8483 231.881 59.4121 232.044 58.9629C232.207 58.5137 232.422 58.0905 232.688 57.6934C232.955 57.2897 233.248 56.9479 233.567 56.668L234.876 57.4297C234.642 57.8203 234.44 58.2402 234.271 58.6895C234.101 59.1387 234.017 59.666 234.017 60.2715V61.7266H231.8ZM235.12 61.7266V60.2715C235.12 59.8483 235.201 59.4121 235.364 58.9629C235.527 58.5137 235.742 58.0905 236.009 57.6934C236.276 57.2897 236.569 56.9479 236.888 56.668L238.196 57.4297C237.962 57.8203 237.76 58.2402 237.591 58.6895C237.422 59.1387 237.337 59.666 237.337 60.2715V61.7266H235.12ZM249.593 69.7148V72H242.024V69.7148H249.593ZM242.981 57.7812V72H240.052V57.7812H242.981ZM248.606 63.5723V65.7988H242.024V63.5723H248.606ZM249.583 57.7812V60.0762H242.024V57.7812H249.583ZM253.392 61.4336L255.14 64.6465L256.937 61.4336H259.935L256.946 66.5996L260.071 72H257.063L255.159 68.6016L253.255 72H250.247L253.372 66.5996L250.384 61.4336H253.392ZM265.472 69.998C265.817 69.998 266.123 69.9329 266.39 69.8027C266.657 69.666 266.865 69.4772 267.015 69.2363C267.171 68.9889 267.252 68.6992 267.259 68.3672H269.905C269.899 69.1094 269.7 69.7702 269.31 70.3496C268.919 70.9225 268.395 71.375 267.737 71.707C267.08 72.0326 266.344 72.1953 265.53 72.1953C264.71 72.1953 263.994 72.0586 263.382 71.7852C262.776 71.5117 262.272 71.1341 261.868 70.6523C261.465 70.1641 261.162 69.5977 260.96 68.9531C260.758 68.3021 260.657 67.6055 260.657 66.8633V66.5801C260.657 65.8314 260.758 65.1348 260.96 64.4902C261.162 63.8392 261.465 63.2728 261.868 62.791C262.272 62.3027 262.776 61.9219 263.382 61.6484C263.987 61.375 264.697 61.2383 265.511 61.2383C266.377 61.2383 267.135 61.4043 267.786 61.7363C268.444 62.0684 268.958 62.5436 269.329 63.1621C269.707 63.7741 269.899 64.5 269.905 65.3398H267.259C267.252 64.9883 267.177 64.6693 267.034 64.3828C266.897 64.0964 266.696 63.8685 266.429 63.6992C266.168 63.5234 265.846 63.4355 265.462 63.4355C265.052 63.4355 264.716 63.5234 264.456 63.6992C264.196 63.8685 263.994 64.1029 263.851 64.4023C263.707 64.6953 263.606 65.0306 263.548 65.4082C263.496 65.7793 263.47 66.1699 263.47 66.5801V66.8633C263.47 67.2734 263.496 67.6673 263.548 68.0449C263.6 68.4225 263.698 68.7578 263.841 69.0508C263.991 69.3438 264.196 69.5749 264.456 69.7441C264.716 69.9134 265.055 69.998 265.472 69.998ZM276.399 72.1953C275.579 72.1953 274.843 72.0651 274.192 71.8047C273.541 71.5378 272.988 71.1699 272.532 70.7012C272.083 70.2324 271.738 69.6888 271.497 69.0703C271.256 68.4453 271.136 67.7812 271.136 67.0781V66.6875C271.136 65.8867 271.25 65.1543 271.478 64.4902C271.705 63.8262 272.031 63.25 272.454 62.7617C272.884 62.2734 273.405 61.8991 274.017 61.6387C274.629 61.3717 275.319 61.2383 276.087 61.2383C276.836 61.2383 277.5 61.362 278.079 61.6094C278.659 61.8568 279.144 62.2083 279.534 62.6641C279.931 63.1198 280.231 63.6667 280.433 64.3047C280.634 64.9362 280.735 65.6393 280.735 66.4141V67.5859H272.337V65.7109H277.972V65.4961C277.972 65.1055 277.9 64.7572 277.757 64.4512C277.62 64.1387 277.412 63.8913 277.132 63.709C276.852 63.5267 276.494 63.4355 276.058 63.4355C275.687 63.4355 275.368 63.5169 275.101 63.6797C274.834 63.8424 274.616 64.0703 274.446 64.3633C274.284 64.6562 274.16 65.0013 274.075 65.3984C273.997 65.7891 273.958 66.2188 273.958 66.6875V67.0781C273.958 67.5013 274.017 67.8919 274.134 68.25C274.257 68.6081 274.43 68.9173 274.651 69.1777C274.879 69.4382 275.153 69.64 275.472 69.7832C275.797 69.9264 276.165 69.998 276.575 69.998C277.083 69.998 277.555 69.9004 277.991 69.7051C278.434 69.5033 278.815 69.2005 279.134 68.7969L280.501 70.2812C280.28 70.6003 279.977 70.9062 279.593 71.1992C279.215 71.4922 278.759 71.7331 278.226 71.9219C277.692 72.1042 277.083 72.1953 276.399 72.1953ZM285.306 57V72H282.483V57H285.306ZM290.599 57V72H287.776V57H290.599ZM297.786 72.1953C296.966 72.1953 296.23 72.0651 295.579 71.8047C294.928 71.5378 294.375 71.1699 293.919 70.7012C293.47 70.2324 293.125 69.6888 292.884 69.0703C292.643 68.4453 292.522 67.7812 292.522 67.0781V66.6875C292.522 65.8867 292.636 65.1543 292.864 64.4902C293.092 63.8262 293.418 63.25 293.841 62.7617C294.271 62.2734 294.791 61.8991 295.403 61.6387C296.015 61.3717 296.705 61.2383 297.474 61.2383C298.222 61.2383 298.886 61.362 299.466 61.6094C300.045 61.8568 300.53 62.2083 300.921 62.6641C301.318 63.1198 301.618 63.6667 301.819 64.3047C302.021 64.9362 302.122 65.6393 302.122 66.4141V67.5859H293.724V65.7109H299.358V65.4961C299.358 65.1055 299.287 64.7572 299.144 64.4512C299.007 64.1387 298.799 63.8913 298.519 63.709C298.239 63.5267 297.881 63.4355 297.444 63.4355C297.073 63.4355 296.754 63.5169 296.487 63.6797C296.22 63.8424 296.002 64.0703 295.833 64.3633C295.67 64.6562 295.547 65.0013 295.462 65.3984C295.384 65.7891 295.345 66.2188 295.345 66.6875V67.0781C295.345 67.5013 295.403 67.8919 295.521 68.25C295.644 68.6081 295.817 68.9173 296.038 69.1777C296.266 69.4382 296.539 69.64 296.858 69.7832C297.184 69.9264 297.552 69.998 297.962 69.998C298.47 69.998 298.942 69.9004 299.378 69.7051C299.821 69.5033 300.201 69.2005 300.521 68.7969L301.888 70.2812C301.666 70.6003 301.364 70.9062 300.979 71.1992C300.602 71.4922 300.146 71.7331 299.612 71.9219C299.078 72.1042 298.47 72.1953 297.786 72.1953ZM306.478 63.6895V72H303.665V61.4336H306.302L306.478 63.6895ZM306.067 66.3457H305.306C305.306 65.5645 305.407 64.8613 305.608 64.2363C305.81 63.6048 306.093 63.0677 306.458 62.625C306.823 62.1758 307.256 61.834 307.757 61.5996C308.265 61.3587 308.831 61.2383 309.456 61.2383C309.951 61.2383 310.403 61.3099 310.813 61.4531C311.224 61.5964 311.575 61.8242 311.868 62.1367C312.168 62.4492 312.396 62.8626 312.552 63.377C312.715 63.8913 312.796 64.5195 312.796 65.2617V72H309.964V65.252C309.964 64.7832 309.899 64.4186 309.769 64.1582C309.638 63.8978 309.446 63.7155 309.192 63.6113C308.945 63.5007 308.639 63.4453 308.274 63.4453C307.897 63.4453 307.568 63.5202 307.288 63.6699C307.015 63.8197 306.787 64.028 306.604 64.2949C306.429 64.5553 306.295 64.8613 306.204 65.2129C306.113 65.5645 306.067 65.9421 306.067 66.3457ZM320.11 61.4336V63.4258H313.958V61.4336H320.11ZM315.481 58.8262H318.294V68.8164C318.294 69.1224 318.333 69.3568 318.411 69.5195C318.496 69.6823 318.619 69.7962 318.782 69.8613C318.945 69.9199 319.15 69.9492 319.397 69.9492C319.573 69.9492 319.729 69.9427 319.866 69.9297C320.009 69.9102 320.13 69.8906 320.228 69.8711L320.237 71.9414C319.996 72.0195 319.736 72.0814 319.456 72.127C319.176 72.1725 318.867 72.1953 318.528 72.1953C317.91 72.1953 317.369 72.0944 316.907 71.8926C316.451 71.6842 316.1 71.3522 315.853 70.8965C315.605 70.4408 315.481 69.8418 315.481 69.0996V58.8262ZM324.407 57V58.4844C324.407 58.9076 324.326 59.3438 324.163 59.793C324.007 60.2422 323.795 60.6686 323.528 61.0723C323.261 61.4694 322.968 61.8079 322.649 62.0879L321.331 61.3262C321.572 60.9421 321.777 60.5254 321.946 60.0762C322.116 59.6204 322.2 59.0931 322.2 58.4941V57H324.407ZM327.776 57V58.4844C327.776 58.9076 327.695 59.3438 327.532 59.793C327.376 60.2422 327.164 60.6686 326.897 61.0723C326.631 61.4694 326.338 61.8079 326.019 62.0879L324.7 61.3262C324.941 60.9421 325.146 60.5254 325.315 60.0762C325.485 59.6204 325.569 59.0931 325.569 58.4941V57H327.776Z" fill="black"/>
</svg>
