<svg width="45" height="45" viewBox="0 0 45 45" fill="none" xmlns="http://www.w3.org/2000/svg">
<path d="M14.0609 2.84979C14.4327 2.84979 14.7341 2.55448 14.7341 2.19018V0.917432C14.7341 0.553125 14.4327 0.257812 14.0609 0.257812C13.6891 0.257812 13.3877 0.553125 13.3877 0.917432V2.19018C13.3877 2.55439 13.6891 2.84979 14.0609 2.84979Z" fill="white"/>
<path d="M23.0857 6.12563L24.0041 5.22563C24.267 4.96802 24.267 4.55037 24.0041 4.29285C23.7412 4.03515 23.3149 4.03524 23.0521 4.29285L22.1337 5.19285C21.8708 5.45046 21.8708 5.86811 22.1337 6.12563C22.2651 6.25448 22.4374 6.31881 22.6097 6.31881C22.7819 6.31881 22.9542 6.25439 23.0857 6.12563Z" fill="white"/>
<path d="M5.03658 21.9452L4.11808 22.8451C3.85517 23.1027 3.85517 23.5202 4.11808 23.7779C4.24948 23.9067 4.42179 23.971 4.5941 23.971C4.76641 23.971 4.93863 23.9066 5.07013 23.7779L5.98864 22.8779C6.25154 22.6203 6.25154 22.2028 5.98864 21.9452C5.72573 21.6876 5.29949 21.6876 5.03658 21.9452Z" fill="white"/>
<path d="M27.4495 14.6952C27.8213 14.6952 28.1227 14.3999 28.1227 14.0356C28.1227 13.6713 27.8213 13.376 27.4495 13.376H26.1507C25.7789 13.376 25.4775 13.6713 25.4775 14.0356C25.4775 14.3999 25.7789 14.6952 26.1507 14.6952H27.4495Z" fill="white"/>
<path d="M1.9721 13.376H0.673182C0.301385 13.376 0 13.6713 0 14.0356C0 14.3999 0.301385 14.6952 0.673182 14.6952H1.9721C2.34389 14.6952 2.64528 14.3999 2.64528 14.0356C2.64528 13.6713 2.3438 13.376 1.9721 13.376Z" fill="white"/>
<path d="M23.0857 21.9452C22.8228 21.6876 22.3965 21.6876 22.1337 21.9452C21.8708 22.2028 21.8708 22.6204 22.1337 22.8779L22.9753 23.7026C23.1067 23.8314 23.2791 23.8958 23.4514 23.8958C23.6237 23.8958 23.7959 23.8314 23.9274 23.7026C24.1903 23.445 24.1903 23.0274 23.9274 22.7698L23.0857 21.9452Z" fill="white"/>
<path d="M5.03649 6.1256C5.1679 6.25436 5.34021 6.31878 5.51252 6.31878C5.68483 6.31878 5.85705 6.25436 5.98855 6.1256C6.25145 5.86799 6.25145 5.45033 5.98855 5.19281L5.07004 4.29281C4.80714 4.03521 4.38089 4.03521 4.11808 4.29281C3.85517 4.55042 3.85517 4.96808 4.11808 5.2256L5.03649 6.1256Z" fill="white"/>
<path d="M11.906 18.9211C11.9589 18.8693 12.0207 18.8572 12.0899 18.8852C12.159 18.9133 12.194 18.9646 12.194 19.0379C12.194 19.9104 12.9183 20.6201 13.8087 20.6201H14.3141C15.2045 20.6201 15.9288 19.9104 15.9288 19.0379C15.9288 18.9646 15.9638 18.9132 16.0329 18.8852C16.1021 18.8572 16.1639 18.8692 16.2168 18.9211C16.5218 19.2199 16.9272 19.3844 17.3585 19.3844C17.7897 19.3844 18.1952 19.2199 18.5002 18.9211L18.8577 18.5708C19.1626 18.272 19.3306 17.8747 19.3306 17.4521C19.3306 17.0296 19.1626 16.6322 18.8577 16.3334C18.8047 16.2815 18.7925 16.2209 18.8211 16.1532C18.8498 16.0854 18.9022 16.0512 18.977 16.0512C19.8673 16.0512 20.5916 15.3414 20.5916 14.469V13.9738C20.5916 13.1014 19.8672 12.3917 18.977 12.3917C18.9022 12.3917 18.8498 12.3573 18.8211 12.2896C18.7925 12.2219 18.8047 12.1613 18.8577 12.1094C19.1626 11.8106 19.3306 11.4134 19.3306 10.9907C19.3306 10.5681 19.1626 10.1708 18.8577 9.87201L18.5003 9.52177C18.1953 9.22294 17.7898 9.05841 17.3585 9.05841C16.9273 9.05841 16.5218 9.22294 16.2169 9.52177C16.1639 9.57354 16.1021 9.58558 16.033 9.55763C15.9638 9.5295 15.9289 9.47817 15.9289 9.40487C15.9289 8.53247 15.2045 7.82275 14.3142 7.82275H13.8088C12.9184 7.82275 12.1941 8.53247 12.1941 9.40487C12.1941 9.47817 12.159 9.52959 12.09 9.55763C12.0208 9.58566 11.959 9.57354 11.9061 9.52177C11.6011 9.22294 11.1956 9.05841 10.7644 9.05841C10.3331 9.05841 9.92762 9.22294 9.62264 9.52186L9.26529 9.87201C8.96032 10.1708 8.7924 10.5682 8.7924 10.9908C8.7924 11.4134 8.96032 11.8107 9.26529 12.1095C9.31821 12.1614 9.3305 12.222 9.3018 12.2897C9.27318 12.3575 9.22071 12.3917 9.1459 12.3917C8.25556 12.3917 7.53125 13.1015 7.53125 13.9739V14.4691C7.53125 15.3415 8.25556 16.0513 9.1459 16.0513C9.22071 16.0513 9.27318 16.0856 9.3018 16.1533C9.3305 16.2211 9.31812 16.2816 9.26529 16.3335C8.96032 16.6323 8.7924 17.0296 8.7924 17.4522C8.7924 17.8748 8.96032 18.2722 9.26529 18.5709L9.62273 18.9211C10.2521 19.5379 11.2765 19.5379 11.906 18.9211ZM9.14581 14.7319C8.99781 14.7319 8.87752 14.614 8.87752 14.469V13.9738C8.87752 13.8288 8.9979 13.7109 9.14581 13.7109C9.76078 13.7109 10.3103 13.3512 10.5455 12.7945C10.7809 12.2378 10.6519 11.6027 10.2171 11.1766C10.1487 11.1096 10.1385 11.0314 10.1385 10.9907C10.1385 10.95 10.1486 10.8719 10.2172 10.8047L10.5745 10.4546C10.6791 10.352 10.8494 10.3519 10.9539 10.4546C11.3888 10.8806 12.037 11.0069 12.605 10.7764C13.1732 10.5459 13.5404 10.0075 13.5404 9.40487C13.5404 9.25985 13.6608 9.14199 13.8087 9.14199H14.3141C14.4621 9.14199 14.5824 9.25994 14.5824 9.40487C14.5824 10.0075 14.9495 10.5459 15.5177 10.7764C16.0858 11.0071 16.7339 10.8807 17.1688 10.4546C17.2372 10.3876 17.317 10.3776 17.3585 10.3776C17.4001 10.3776 17.4798 10.3875 17.5483 10.4546L17.9057 10.8048C18.0103 10.9073 18.0103 11.0741 17.9057 11.1766C17.4708 11.6027 17.342 12.2377 17.5772 12.7944C17.8126 13.3511 18.362 13.7108 18.977 13.7108C19.125 13.7108 19.2453 13.8288 19.2453 13.9737V14.469C19.2453 14.614 19.125 14.7318 18.977 14.7318C18.362 14.7318 17.8126 15.0916 17.5772 15.6483C17.3419 16.205 17.4708 16.8401 17.9057 17.2661C18.0103 17.3686 18.0103 17.5354 17.9057 17.6379L17.5483 17.9881C17.4436 18.0906 17.2734 18.0906 17.1688 17.9881C16.734 17.562 16.0857 17.4357 15.5178 17.6662C14.9496 17.8969 14.5825 18.4352 14.5825 19.0378C14.5825 19.1828 14.4621 19.3007 14.3142 19.3007H13.8088C13.6608 19.3007 13.5405 19.1827 13.5405 19.0378C13.5405 18.4351 13.1733 17.8968 12.6051 17.6662C12.4166 17.5897 12.2192 17.5525 12.0238 17.5525C11.6303 17.5525 11.2446 17.7033 10.954 17.988C10.8494 18.0906 10.6792 18.0905 10.5746 17.988L10.2172 17.6378C10.1488 17.5708 10.1386 17.4926 10.1386 17.4519C10.1386 17.4112 10.1487 17.333 10.2172 17.266C10.652 16.8399 10.7809 16.2049 10.5456 15.6482C10.3102 15.0917 9.76078 14.7319 9.14581 14.7319Z" fill="white"/>
<path d="M14.0615 16.5113C15.35 16.5113 16.3984 15.4841 16.3984 14.2215C16.3984 12.9588 15.3501 11.9316 14.0615 11.9316C12.773 11.9316 11.7246 12.9588 11.7246 14.2215C11.7246 15.4841 12.7729 16.5113 14.0615 16.5113ZM14.0615 13.2509C14.6077 13.2509 15.052 13.6863 15.052 14.2215C15.052 14.7566 14.6077 15.192 14.0615 15.192C13.5153 15.192 13.071 14.7566 13.071 14.2215C13.071 13.6863 13.5153 13.2509 14.0615 13.2509Z" fill="white"/>
<path d="M44.7436 24.4998L42.7355 20.3694C42.6583 20.2105 42.6163 20.0335 42.6141 19.8576L42.5757 16.832C42.5757 7.58259 34.976 0.0317285 25.6349 8.78906e-05C25.6152 0 25.5954 0 25.5756 0C22.5392 0 19.5604 0.793477 16.9577 2.29632C16.6374 2.48124 16.5308 2.88562 16.7195 3.19948C16.9082 3.51334 17.3209 3.61784 17.6412 3.43292C20.0369 2.04961 22.7794 1.31924 25.5756 1.31924C25.5938 1.31924 25.612 1.31924 25.6302 1.31933C34.2315 1.34851 41.2293 8.30751 41.2294 16.8402L41.2678 19.8738C41.2724 20.2392 41.3596 20.6067 41.52 20.9367L43.5281 25.067C43.9308 25.8955 43.3095 26.8358 42.395 26.8359C40.9551 26.8194 39.7731 27.9613 39.773 29.3803L39.7727 34.708C39.7726 35.9824 38.6177 36.9577 37.3328 36.7736L32.6329 36.0982C31.2075 35.8933 29.929 36.9772 29.929 38.3874V39.8448L15.7088 38.5564V36.3706C15.7088 36.0063 15.4074 35.711 15.0356 35.711C14.6638 35.711 14.3624 36.0063 14.3624 36.3706V38.4344L14.1151 38.412C12.7891 38.2917 11.6426 39.3165 11.6426 40.621V42.765C11.6426 43.9871 12.6572 44.9823 13.9045 44.9835L31.5944 45H31.5967C32.847 45 33.8606 44.0087 33.8606 42.7816V42.2237C33.8606 41.0705 32.9769 40.1208 31.805 40.0147L31.2753 39.9667V38.3873C31.2753 37.7798 31.823 37.3155 32.4374 37.4033L37.1374 38.0788C39.2365 38.3806 41.1189 36.7842 41.119 34.708L41.1193 29.3803C41.1194 28.7014 41.6823 28.1472 42.3885 28.1551C44.3041 28.1551 45.569 26.1976 44.7436 24.4998ZM32.5143 42.2238V42.7816C32.5143 43.2782 32.1042 43.6809 31.5966 43.6809C31.5963 43.6809 31.596 43.6809 31.5957 43.6809L13.9057 43.6642C13.4001 43.6638 12.9889 43.2604 12.9889 42.765V40.621C12.9889 40.0954 13.4484 39.6763 13.991 39.7257L14.9663 39.814C14.9666 39.814 14.9668 39.814 14.967 39.8141L31.6811 41.3285C32.1561 41.3714 32.5143 41.7563 32.5143 42.2238Z" fill="white"/>
<path d="M12.7348 33.9467H15.5773C17.3506 33.9467 18.8128 32.6185 18.983 30.9242C19.5195 30.69 19.8949 30.1635 19.8949 29.552V26.3676C19.8949 25.848 19.6242 25.3894 19.2139 25.1195C19.7187 23.4025 20.596 21.7835 21.7738 20.4081C27.3235 13.9281 22.4778 4.10345 13.9182 4.21481C5.48023 4.33003 0.954441 14.0276 6.30833 20.36C7.50184 21.7717 8.39057 23.4089 8.90149 25.1246C8.49552 25.3951 8.22822 25.8513 8.22822 26.3676V29.5519C8.22822 30.2362 8.69806 30.8139 9.33787 30.9946C9.54104 32.6551 10.9864 33.9467 12.7348 33.9467ZM9.76133 29.7351C9.65827 29.7351 9.57449 29.653 9.57449 29.552V26.3676C9.57449 26.2667 9.65827 26.1846 9.76133 26.1846H18.3604C18.3626 26.1847 18.3649 26.185 18.3671 26.1851C18.4675 26.1881 18.5484 26.2686 18.5484 26.3676V29.552C18.5484 29.653 18.4645 29.7351 18.3616 29.7351H9.76133ZM15.5773 32.6275H12.7348C11.7519 32.6275 10.927 31.9545 10.7132 31.0542H17.599C17.3852 31.9545 16.5603 32.6275 15.5773 32.6275ZM13.9369 5.53387C21.4031 5.43736 25.5039 14.0002 20.7425 19.5602C19.4188 21.1057 18.4391 22.9307 17.8879 24.8653H10.2263C9.66957 22.9374 8.68065 21.0982 7.34505 19.5184C2.70606 14.0315 6.63357 5.63371 13.9369 5.53387Z" fill="white"/>
</svg>
