<svg width="45" height="45" viewBox="0 0 45 45" fill="none" xmlns="http://www.w3.org/2000/svg">
<g clip-path="url(#clip0_15_758)">
<path d="M40.6923 29.7579C40.5172 29.443 40.12 29.3295 39.8051 29.5045L35.9473 31.6488C35.0677 32.1375 34.1286 32.5149 33.156 32.7702L13.978 37.8041C13.5894 37.9057 13.1957 37.91 12.8083 37.8169C12.0424 37.6326 11.4142 37.0845 11.1273 36.349C11.0768 36.2206 10.9645 35.6347 10.9645 35.4803C10.9645 34.6156 11.4311 33.8145 12.1819 33.3897C12.2547 33.3485 21.2211 29.3594 21.2211 29.3594C22.4553 28.8098 23.2238 27.5358 23.1333 26.1895C23.0312 24.6607 21.865 23.4315 20.391 23.2093L24.3089 14.7008L38.7124 20.4627C38.7919 20.4944 38.8738 20.5095 38.9545 20.5095C39.2133 20.5095 39.4584 20.3544 39.5604 20.0992C39.6942 19.7647 39.5315 19.3851 39.197 19.2513L24.8554 13.5142L29.6479 3.10589C29.8926 2.57448 29.9157 1.97953 29.7128 1.43065C29.5099 0.881875 29.1055 0.4449 28.574 0.200418C27.4775 -0.304301 26.1743 0.177335 25.6693 1.27389L20.2328 13.0804C19.5275 13.228 18.848 13.4715 18.2089 13.8076L10.1155 18.0616C7.88239 19.2353 6.27319 21.3181 5.70072 23.7759L4.27629 29.8886C3.862 31.6651 6.07367 35.7797 7.73646 37.5238C8.05401 37.8569 8.35208 38.1058 8.6337 38.2727L7.60991 40.496C7.36502 41.0273 7.34194 41.6223 7.54507 42.1711C7.67213 42.5145 7.87827 42.8141 8.14503 43.0503L7.70204 44.0925C7.56113 44.4241 7.71569 44.8071 8.04718 44.948C8.13048 44.9834 8.21689 45.0002 8.3021 45.0002C8.55592 45.0002 8.79729 44.8512 8.90277 44.6029L9.33532 43.5852C9.42184 43.5955 9.50915 43.6013 9.59757 43.6013C10.4506 43.6013 11.2323 43.1014 11.5887 42.3275L12.4529 40.4512C12.9107 41.4718 13.9186 42.0815 14.9751 42.0815C15.3428 42.0815 15.7164 42.0077 16.0745 41.8517C16.8476 41.5142 17.3882 40.8624 17.6131 40.1109C17.6822 40.1448 17.7528 40.1767 17.8252 40.2052C18.1521 40.3335 18.4933 40.3975 18.8342 40.3975C19.209 40.3975 19.5835 40.3201 19.9373 40.1656C20.613 39.8707 21.1335 39.3303 21.4028 38.644C21.4314 38.571 21.4562 38.4973 21.4784 38.423C21.8564 38.6089 22.2746 38.7098 22.7012 38.7098C23.0691 38.7098 23.4432 38.6358 23.8015 38.4794C24.7555 38.0625 25.3772 37.1493 25.448 36.1425L33.4872 34.0324C34.5653 33.7493 35.6061 33.3311 36.5811 32.7894L40.4389 30.6451C40.7539 30.4699 40.8673 30.0728 40.6923 29.7579ZM11.5794 31.0736C11.4134 30.3127 11.5374 29.5219 11.9286 28.8468L13.4922 26.1464C13.7853 25.6402 14.2236 25.2477 14.7397 25.0104L11.6977 31.6168L11.5794 31.0736ZM23.7914 8.47173L25.3763 9.26308L15.6368 30.4141L13.1864 31.5029L23.7914 8.47173ZM19.9113 24.4778C20.9208 24.4778 21.7641 25.2679 21.8316 26.2767C21.8856 27.0797 21.427 27.8395 20.691 28.1673L17.4436 29.6102L19.8043 24.4834C19.8581 24.4802 19.898 24.4781 19.9113 24.4778ZM26.8545 1.81965C27.0585 1.37636 27.5855 1.18186 28.0287 1.38559C28.2436 1.48445 28.4071 1.66108 28.4891 1.88298C28.5711 2.10488 28.5618 2.34535 28.4628 2.56022L25.9222 8.07741L24.3374 7.28606L26.8545 1.81965ZM7.71378 35.4076C6.36522 33.4586 5.35267 31.018 5.54707 30.1846L6.9716 24.0718C7.45806 21.9834 8.82539 20.2137 10.7228 19.2164L18.8163 14.9623C19.0421 14.8436 19.2741 14.7389 19.5112 14.6481L15.4454 23.4779C14.1586 23.6232 13.0156 24.3657 12.3632 25.4927L10.7997 28.1928C10.245 29.1503 10.0693 30.2721 10.3048 31.3516L10.6543 32.9563C10.0261 33.6327 9.66 34.5312 9.66 35.4804C9.66 35.6449 9.67184 35.8094 9.69352 35.9719L9.18448 37.077C8.88912 36.863 8.38711 36.3808 7.71378 35.4076ZM10.4037 41.7814C10.2595 42.0942 9.94312 42.2964 9.59747 42.2964C9.46891 42.2964 9.34526 42.2694 9.22954 42.216C9.01447 42.1168 8.85078 41.94 8.76868 41.7182C8.68669 41.4966 8.69592 41.2563 8.79488 41.0416L10.3593 37.6445C10.7148 38.1379 11.1869 38.5367 11.7336 38.8057L11.7533 38.8509L10.4037 41.7814ZM15.5529 40.6555C14.8169 40.9761 13.9572 40.6388 13.6362 39.9037L13.3229 39.1858C13.3373 39.186 13.3516 39.187 13.366 39.187C13.6829 39.187 14.0002 39.1467 14.3086 39.066L16.2273 38.5624L16.3042 38.739C16.6249 39.4751 16.2876 40.3349 15.5529 40.6555ZM20.1882 38.1672C20.0461 38.5291 19.7717 38.8141 19.4154 38.9697C19.0593 39.1251 18.6637 39.1326 18.3019 38.9905C17.9434 38.8497 17.661 38.5789 17.5049 38.2272L20.282 37.4983C20.3035 37.7229 20.2732 37.951 20.1882 38.1672ZM23.2793 37.2836C22.9231 37.4391 22.5276 37.4465 22.1657 37.3045C22.0339 37.2528 21.9128 37.1831 21.804 37.0988L24.0375 36.5125C23.8962 36.8487 23.6307 37.13 23.2793 37.2836Z" fill="white"/>
</g>
<defs>
<clipPath id="clip0_15_758">
<rect width="45" height="45" fill="white"/>
</clipPath>
</defs>
</svg>
