<svg width="45" height="45" viewBox="0 0 45 45" fill="none" xmlns="http://www.w3.org/2000/svg">
<g clip-path="url(#clip0_15_764)">
<path d="M28.1823 24.6583V13.6733C28.1823 13.3094 27.8871 13.0142 27.5232 13.0142C27.1589 13.0142 26.864 13.3094 26.864 13.6733V15.2938C26.8499 15.301 26.8355 15.3062 26.8214 15.3141L13.4768 22.5953V22.4439C13.4768 22.1081 13.3285 21.8139 13.07 21.6364C12.8114 21.4592 12.4836 21.4269 12.1701 21.5478L3.98632 24.7081C3.50876 24.8924 3.16166 25.3944 3.15514 25.9059H1.53809C0.690079 25.9059 0 26.596 0 27.444V30.1789C0 31.0269 0.690079 31.717 1.53809 31.717H3.15514C3.16166 32.2282 3.50876 32.7305 3.98598 32.9149L5.27241 33.4113H3.8744C3.02605 33.4113 2.33631 34.0708 2.33631 34.8818C2.33631 34.9518 2.24018 35.0335 2.11658 35.0335H1.76605C0.918045 35.0335 0.227966 35.7232 0.227966 36.5716V40.1133C0.227966 40.9613 0.918045 41.6514 1.76605 41.6514H2.11658C2.24018 41.6514 2.33631 41.7331 2.33631 41.8031C2.33631 42.6137 3.02605 43.2733 3.8744 43.2733H4.95689V43.5537C4.95689 44.1597 5.44991 44.6524 6.05553 44.6524H8.70941C9.2704 44.6524 9.78024 44.2188 9.87019 43.6653L9.9955 42.8959H11.3444C12.1924 42.8959 12.8825 42.2059 12.8825 41.3579V40.5195C12.8825 40.1926 12.7795 39.8898 12.6048 39.6406C12.7795 39.391 12.8825 39.0885 12.8825 38.7617V37.9233C12.8825 37.5964 12.7795 37.2939 12.6048 37.0443C12.7795 36.7951 12.8825 36.4923 12.8825 36.1654V36.0851C12.9481 36.0597 13.0109 36.0267 13.07 35.9862C13.3285 35.8091 13.4768 35.5148 13.4768 35.1787V35.0277L26.8214 42.3089C26.8355 42.3164 26.8496 42.3219 26.8636 42.3288V43.9496C26.8636 44.3135 27.1589 44.6088 27.5228 44.6088C27.8871 44.6088 28.182 44.3135 28.182 43.9496V32.9646C29.958 32.4249 31.2547 30.7684 31.2547 28.8115C31.2547 26.8545 29.958 25.198 28.1823 24.6583ZM3.15445 30.3987H1.53809C1.41895 30.3987 1.31836 30.2981 1.31836 30.1789V27.444C1.31836 27.3249 1.41895 27.2243 1.53809 27.2243H3.15445V30.3987ZM5.71632 38.087C5.59753 38.087 5.4966 37.9864 5.4966 37.8673V36.3234C5.4966 35.9594 5.20168 35.6642 4.83742 35.6642C4.4735 35.6642 4.17824 35.9594 4.17824 36.3234V37.8673C4.17824 38.4393 4.49272 38.9381 4.95689 39.2032V41.9549H3.8744C3.75046 41.9549 3.65467 41.8735 3.65467 41.8031C3.65467 40.9926 2.96459 40.333 2.11658 40.333H1.76605C1.64692 40.333 1.54633 40.2324 1.54633 40.1133V36.5716C1.54633 36.4525 1.64692 36.3519 1.76605 36.3519H2.11658C2.96459 36.3519 3.65467 35.6923 3.65467 34.8818C3.65467 34.8114 3.75046 34.7297 3.8744 34.7297H6.53515C6.65428 34.7297 6.75488 34.8306 6.75488 34.9494V37.8673C6.75488 37.9864 6.65428 38.087 6.53515 38.087H5.71632ZM8.58856 43.334H6.27525V39.4054H6.53515C6.98868 39.4054 7.39586 39.2069 7.67773 38.8935C7.70107 39.1699 7.79789 39.4249 7.94861 39.6406C7.7742 39.8898 7.67086 40.1926 7.67086 40.5195V41.3579C7.67086 42.0181 8.09006 42.5808 8.67577 42.7984L8.58856 43.334ZM11.5641 41.3579C11.5641 41.4766 11.4635 41.5776 11.3444 41.5776H9.20895C9.09016 41.5776 8.98922 41.4766 8.98922 41.3579V40.5195C8.98922 40.4003 9.09016 40.2997 9.20895 40.2997H11.3444C11.4635 40.2997 11.5641 40.4003 11.5641 40.5195V41.3579ZM11.5641 38.7617C11.5641 38.8808 11.4635 38.9814 11.3444 38.9814H9.20895C9.09016 38.9814 8.98922 38.8808 8.98922 38.7617V37.9233C8.98922 37.8041 9.09016 37.7035 9.20895 37.7035H11.3444C11.4635 37.7035 11.5641 37.8041 11.5641 37.9233V38.7617ZM11.5641 36.1654C11.5641 36.2846 11.4635 36.3852 11.3444 36.3852H9.20895C9.09016 36.3852 8.98922 36.2846 8.98922 36.1654V35.327C8.98922 35.2083 9.09016 35.1073 9.20895 35.1073H9.66488L11.5645 35.841V36.1654H11.5641ZM26.864 40.8302L24.4511 39.5135V27.0722C24.4511 26.7083 24.1562 26.413 23.7919 26.413C23.428 26.413 23.1327 26.7083 23.1327 27.0722V38.7943L13.4768 33.526V32.6972C13.4768 32.3333 13.1815 32.038 12.8176 32.038C12.4537 32.038 12.1584 32.3333 12.1584 32.6972V34.6572L4.48311 31.6937C4.47968 31.6892 4.47556 31.6834 4.47281 31.6782V25.9444C4.47556 25.9396 4.47968 25.9337 4.48311 25.9293L12.1584 22.9657V29.621C12.1584 29.9849 12.4537 30.2802 12.8176 30.2802C13.1819 30.2802 13.4768 29.9849 13.4768 29.621V24.097L23.1327 18.8287V23.9081C23.1327 24.2721 23.428 24.5673 23.7919 24.5673C24.1562 24.5673 24.4511 24.2721 24.4511 23.9081V18.1094L26.864 16.7928V40.8302ZM28.1823 31.5584V26.0645C29.2164 26.5424 29.9364 27.5937 29.9364 28.8115C29.9364 30.0292 29.2164 31.0805 28.1823 31.5584Z" fill="white"/>
<path d="M35.8828 22.022C35.6246 22.2788 35.6236 22.6963 35.8804 22.9541C39.0949 26.1841 39.0949 31.4393 35.8804 34.6686C35.6236 34.9268 35.6246 35.3443 35.8828 35.6011C36.0115 35.7292 36.1798 35.793 36.3477 35.793C36.5169 35.793 36.6862 35.7281 36.8149 35.5987C40.5396 31.8565 40.5396 25.767 36.8149 22.0244C36.5581 21.7662 36.1406 21.7652 35.8828 22.022Z" fill="white"/>
<path d="M32.6585 24.0949C32.4004 24.3513 32.3993 24.7688 32.6561 25.027C34.7329 27.1141 34.7325 30.5092 32.6558 32.5959C32.399 32.8537 32.4 33.2712 32.6582 33.528C32.7866 33.6561 32.9548 33.7199 33.123 33.7199C33.2923 33.7199 33.4616 33.6554 33.5903 33.526C36.1772 30.9267 36.1776 26.6969 33.5907 24.0973C33.3338 23.8388 32.9164 23.8381 32.6585 24.0949Z" fill="white"/>
<path d="M9.64737 26.0034H7.51465C7.15073 26.0034 6.85547 26.2987 6.85547 26.6626C6.85547 27.0269 7.15073 27.3218 7.51465 27.3218H9.64737C10.0113 27.3218 10.3065 27.0269 10.3065 26.6626C10.3065 26.2987 10.0113 26.0034 9.64737 26.0034Z" fill="white"/>
<path d="M9.64737 28.1523H7.51465C7.15073 28.1523 6.85547 28.4476 6.85547 28.8115C6.85547 29.1754 7.15073 29.4707 7.51465 29.4707H9.64737C10.0113 29.4707 10.3065 29.1754 10.3065 28.8115C10.3065 28.4476 10.0113 28.1523 9.64737 28.1523Z" fill="white"/>
<path d="M9.64737 30.3008H7.51465C7.15073 30.3008 6.85547 30.596 6.85547 30.96C6.85547 31.3242 7.15073 31.6191 7.51465 31.6191H9.64737C10.0113 31.6191 10.3065 31.3242 10.3065 30.96C10.3065 30.596 10.0113 30.3008 9.64737 30.3008Z" fill="white"/>
<path d="M43.901 5.9165H30.9375C30.3319 5.9165 29.8389 6.40917 29.8389 7.01514V16.8342C29.8389 17.4401 30.3319 17.9328 30.9375 17.9328H32.4632V19.9814C32.4632 20.37 32.6493 20.6797 32.9607 20.8095C33.0561 20.8493 33.1554 20.8686 33.2553 20.8686C33.4801 20.8686 33.7074 20.7693 33.8987 20.5795L36.4482 18.0516C36.499 18.0028 36.6658 17.9342 36.7359 17.9328H39.2868C39.6507 17.9328 39.9459 17.6379 39.9459 17.2736C39.9459 16.9097 39.6507 16.6144 39.2868 16.6144H36.7359C36.3174 16.6144 35.8175 16.8204 35.5202 17.115L33.7816 18.8388V17.7131C33.7816 17.1075 33.2889 16.6144 32.683 16.6144H31.1572V7.23486H43.6813V16.6144H42.3629C41.999 16.6144 41.7038 16.9097 41.7038 17.2736C41.7038 17.6379 41.999 17.9328 42.3629 17.9328H43.901C44.507 17.9328 44.9997 17.4401 44.9997 16.8342V7.01514C44.9997 6.40917 44.507 5.9165 43.901 5.9165Z" fill="white"/>
<path d="M33.6553 10.1099H41.1833C41.5472 10.1099 41.8425 9.81461 41.8425 9.45068C41.8425 9.08642 41.5472 8.7915 41.1833 8.7915H33.6553C33.2914 8.7915 32.9961 9.08642 32.9961 9.45068C32.9961 9.81461 33.2914 10.1099 33.6553 10.1099Z" fill="white"/>
<path d="M41.1833 11.2656H33.6553C33.2914 11.2656 32.9961 11.5605 32.9961 11.9248C32.9961 12.2887 33.2914 12.584 33.6553 12.584H41.1833C41.5472 12.584 41.8425 12.2887 41.8425 11.9248C41.8425 11.5605 41.5472 11.2656 41.1833 11.2656Z" fill="white"/>
<path d="M33.6553 13.7393C33.2914 13.7393 32.9961 14.0345 32.9961 14.3984C32.9961 14.7627 33.2914 15.0576 33.6553 15.0576H37.0188C37.3831 15.0576 37.678 14.7627 37.678 14.3984C37.678 14.0345 37.3831 13.7393 37.0188 13.7393H33.6553Z" fill="white"/>
<path d="M11.7617 12.3682H18.9269C18.9972 12.3692 19.1638 12.4379 19.2146 12.4863L21.7644 15.0149C22.0048 15.2531 22.2468 15.3033 22.4071 15.3033C22.8009 15.3033 23.1995 14.9987 23.1995 14.4165V12.3682H24.7252C25.3312 12.3682 25.8239 11.8752 25.8239 11.2696V1.4502C25.8239 0.844231 25.3312 0.351562 24.7252 0.351562H11.7617C11.1561 0.351562 10.6631 0.844231 10.6631 1.4502V11.2696C10.6631 11.8752 11.1561 12.3682 11.7617 12.3682ZM11.9814 1.66992H24.5055V11.0498H22.9801C22.3742 11.0498 21.8815 11.5425 21.8815 12.1485V13.2742L20.1429 11.5501C19.8456 11.2555 19.3457 11.0498 18.9272 11.0498H11.9818V1.66992H11.9814Z" fill="white"/>
<path d="M14.4795 4.54492H22.0072C22.3711 4.54492 22.6664 4.24966 22.6664 3.88574C22.6664 3.52182 22.3711 3.22656 22.0072 3.22656H14.4795C14.1152 3.22656 13.8203 3.52182 13.8203 3.88574C13.8203 4.24966 14.1152 4.54492 14.4795 4.54492Z" fill="white"/>
<path d="M14.4795 7.01904H22.0072C22.3711 7.01904 22.6664 6.72413 22.6664 6.35986C22.6664 5.99594 22.3711 5.70068 22.0072 5.70068H14.4795C14.1152 5.70068 13.8203 5.99594 13.8203 6.35986C13.8203 6.72413 14.1152 7.01904 14.4795 7.01904Z" fill="white"/>
<path d="M17.8434 8.1748H14.4795C14.1156 8.1748 13.8203 8.46972 13.8203 8.83398C13.8203 9.19791 14.1156 9.49316 14.4795 9.49316H17.8434C18.2073 9.49316 18.5025 9.19791 18.5025 8.83398C18.5025 8.46972 18.2073 8.1748 17.8434 8.1748Z" fill="white"/>
</g>
<defs>
<clipPath id="clip0_15_764">
<rect width="45" height="45" fill="white"/>
</clipPath>
</defs>
</svg>
