<svg width="45" height="45" viewBox="0 0 45 45" fill="none" xmlns="http://www.w3.org/2000/svg">
<path d="M33.0555 25.6489C30.159 25.6489 27.5668 27.4837 26.6052 30.2145C26.3487 30.9429 26.2188 31.707 26.2188 32.4857C26.2188 36.2555 29.2858 39.3223 33.0555 39.3223C36.8252 39.3223 39.8922 36.2554 39.8922 32.4857C39.8922 28.716 36.8253 25.6489 33.0555 25.6489ZM33.0555 38.004C30.0126 38.004 27.5371 35.5284 27.5371 32.4857C27.5371 31.8566 27.642 31.2397 27.8488 30.6525C28.6248 28.4482 30.7173 26.9673 33.0555 26.9673C36.0983 26.9673 38.5738 29.4428 38.5738 32.4857C38.5738 35.5284 36.0983 38.004 33.0555 38.004Z" fill="white"/>
<path d="M44.377 40.9908L40.9442 37.4738C41.8576 36.0299 42.3871 34.32 42.3871 32.4884C42.3871 31.5621 42.2515 30.655 41.9906 29.7876L43.3404 29.6257C43.6305 29.5909 43.8632 29.3691 43.9117 29.0808L44.9728 22.7852C45.0209 22.4998 44.8773 22.2163 44.6187 22.0864L41.1553 20.3461C41.0572 19.3241 40.8735 18.3044 40.6073 17.3056L43.2806 14.4539C43.4792 14.242 43.5158 13.9248 43.3706 13.6732L40.1938 8.16811C40.0486 7.91639 39.7559 7.78939 39.4731 7.85583L35.6464 8.75126C35.2617 8.37272 34.8561 8.00709 34.4394 7.66309C34.0767 7.36347 33.6973 7.07361 33.3116 6.80124C33.2984 6.79183 33.2849 6.78243 33.2716 6.77302L33.4872 2.86999C33.5033 2.57986 33.3275 2.31346 33.0547 2.21406L27.0843 0.0398259C26.8114 -0.0595782 26.5058 0.0314763 26.3316 0.264122L23.9757 3.41122C22.95 3.32851 21.913 3.33176 20.8836 3.42036L18.5431 0.294445C18.369 0.0618864 18.0636 -0.0293438 17.7904 0.0701481L11.8199 2.24429C11.5471 2.3437 11.3714 2.61009 11.3874 2.90022L11.6043 6.82646C10.7648 7.42341 9.97242 8.09244 9.24125 8.82149L5.44026 7.93212C5.15742 7.86559 4.86475 7.99277 4.71955 8.2444L1.54267 13.7494C1.39747 14.001 1.43403 14.3181 1.63267 14.5301L4.32405 17.4011C4.06398 18.3993 3.886 19.4203 3.79319 20.4454L0.362473 22.1748C0.104779 22.3048 -0.0385708 22.5874 0.00906585 22.8722L1.06068 29.1665C1.10893 29.4552 1.34166 29.6775 1.63214 29.7123L5.53825 30.1809C5.98052 31.1139 6.50022 32.0109 7.08785 32.8557L5.5524 36.4459C5.43823 36.713 5.51215 37.0235 5.7346 37.2102L10.6018 41.2963C10.8244 41.4832 11.1429 41.5022 11.3858 41.3432L14.6811 39.1887C15.62 39.6182 16.5936 39.9707 17.5837 40.2396L18.715 43.98C18.7991 44.2581 19.0553 44.4484 19.3457 44.4484H25.6994C25.9897 44.4484 26.2459 44.2582 26.3301 43.98L27.4696 40.2124C27.5436 40.1919 27.6167 40.1691 27.6905 40.1478C29.2075 41.2121 31.0534 41.8377 33.0428 41.8377C34.8573 41.8377 36.5522 41.317 37.9874 40.418L41.3991 43.9777C42.1817 44.806 43.6015 44.8117 44.3888 43.9878C45.2091 43.1976 45.2022 41.775 44.377 40.9908ZM25.0161 32.4885C25.0161 31.5732 25.1687 30.6755 25.4695 29.8207C26.5984 26.6131 29.6418 24.4581 33.0428 24.4581C34.6514 24.4581 36.203 24.9322 37.5301 25.8292C37.8316 26.033 38.2413 25.9536 38.445 25.6519C38.6486 25.3503 38.5693 24.9404 38.2678 24.7366C37.4429 24.1791 36.5434 23.7634 35.5995 23.4954C35.645 23.0488 35.6694 22.5979 35.6694 22.1483C35.6694 14.9025 29.7773 9.00746 22.535 9.00746C21.0164 9.00746 19.5278 9.26463 18.1105 9.77193C17.7679 9.89454 17.5894 10.2719 17.712 10.6147C17.8347 10.9576 18.2118 11.1361 18.5544 11.0134C19.8288 10.5572 21.1681 10.326 22.535 10.326C29.0507 10.326 34.3516 15.6296 34.3516 22.1484C34.3516 22.5077 34.3335 22.8677 34.3012 23.2253C33.8865 23.1694 33.4665 23.1397 33.0428 23.1397C32.0518 23.1397 31.0869 23.297 30.1765 23.5912C30.2652 23.1184 30.3103 22.6364 30.3103 22.1484C30.3103 17.8591 26.8223 14.3694 22.535 14.3694C18.2477 14.3694 14.7598 17.8591 14.7598 22.1484C14.7598 23.8143 15.2785 25.4029 16.26 26.7425C16.4763 27.0381 16.8904 27.0984 17.1809 26.8845C17.4744 26.6693 17.538 26.2568 17.3229 25.9631C16.5082 24.851 16.0776 23.532 16.0776 22.1484C16.0776 18.586 18.9744 15.6878 22.535 15.6878C26.0957 15.6878 28.9924 18.586 28.9924 22.1484C28.9924 22.868 28.8747 23.5714 28.6443 24.2437C26.9842 25.131 25.6044 26.5108 24.7253 28.2267C24.0247 28.4796 23.2893 28.609 22.5351 28.609C21.4444 28.609 20.3667 28.332 19.4186 27.8083C19.1 27.6322 18.6991 27.7478 18.5233 28.0667C18.3474 28.3854 18.463 28.7865 18.7815 28.9625C19.9242 29.5938 21.2221 29.9275 22.5351 29.9275C23.0657 29.9275 23.5887 29.8732 24.1005 29.7684C23.8337 30.6472 23.6984 31.5603 23.6984 32.4887C23.6984 32.9693 23.7349 33.4415 23.8051 33.9028C23.3841 33.9477 22.9593 33.9707 22.5351 33.9707C16.0195 33.9707 10.7185 28.6672 10.7185 22.1483C10.7185 18.2026 12.6757 14.5313 15.954 12.3276C16.2561 12.1245 16.3364 11.715 16.1334 11.4128C15.9304 11.1106 15.521 11.0302 15.219 11.2332C11.5758 13.6822 9.40069 17.7626 9.40069 22.1483C9.40069 29.3942 15.2928 35.2892 22.5351 35.2892C23.0574 35.2892 23.581 35.2577 24.0985 35.1964C24.5609 36.7224 25.4035 38.0843 26.5157 39.1718C26.4226 39.2521 26.3515 39.3574 26.3147 39.479L25.2105 43.1299H19.835L18.7383 39.504C18.6711 39.2819 18.4922 39.1115 18.2673 39.0553C17.1183 38.7681 15.9902 38.3598 14.9141 37.8416C14.7063 37.7416 14.4612 37.7575 14.2679 37.8838L11.0744 39.9717L6.95646 36.5146L8.44488 33.0344C8.53611 32.821 8.50851 32.5754 8.37211 32.3876C7.67434 31.4266 7.07238 30.3877 6.58301 29.2997C6.48817 29.0888 6.28989 28.9431 6.0605 28.9156L2.2791 28.462L1.38895 23.1337L4.71692 21.4563C4.92434 21.3516 5.06145 21.1455 5.07771 20.9135C5.16076 19.7279 5.36687 18.5449 5.69048 17.3976C5.75332 17.1751 5.69505 16.9361 5.53702 16.7675L2.92844 13.985L5.6163 9.3273L9.30164 10.1896C9.52778 10.2428 9.76499 10.1725 9.92627 10.005C10.7533 9.14615 11.6709 8.37131 12.6533 7.70229C12.8443 7.57221 12.9533 7.35161 12.9405 7.12089L12.7302 3.31577L17.7817 1.47631L20.0507 4.50703C20.1899 4.69292 20.4167 4.79206 20.6478 4.76737C21.8347 4.64098 23.0354 4.63746 24.2164 4.75673C24.446 4.77976 24.6714 4.68097 24.8099 4.49605L27.0933 1.44616L32.1446 3.28571L31.9355 7.07027C31.9227 7.30248 32.033 7.52422 32.2259 7.65386C33.2142 8.31858 34.1368 9.08639 34.9677 9.93761C35.1288 10.1026 35.3644 10.1714 35.589 10.1188L39.2972 9.2511L41.9849 13.9088L39.393 16.6738C39.234 16.8433 39.1761 17.084 39.2404 17.3074C39.5714 18.4564 39.7843 19.638 39.8734 20.8194C39.8908 21.0503 40.0279 21.2551 40.2347 21.359L43.5925 23.0461L42.6942 28.3753L41.5043 28.518C41.2641 28.007 40.9774 27.515 40.6431 27.0483C40.431 26.7523 40.0194 26.6846 39.7236 26.8964C39.4278 27.1085 39.3599 27.5204 39.5718 27.8164C40.5515 29.184 41.0693 30.7996 41.0693 32.4884C41.0693 36.9165 37.4686 40.5189 33.0427 40.5189C28.6168 40.5189 25.0161 36.9165 25.0161 32.4885ZM40.1517 38.549L40.9364 39.353L39.8182 40.4231L39.0616 39.6337C39.4538 39.3024 39.8185 38.9396 40.1517 38.549ZM43.4552 43.0569C43.163 43.3624 42.6394 43.3623 42.3448 43.0594L40.7302 41.3748L41.8571 40.2964L43.4382 41.9163C43.7588 42.2095 43.7687 42.7555 43.4552 43.0569Z" fill="white"/>
</svg>
